<?xml version="1.0" standalone="no"?><svg xmlns="http://www.w3.org/2000/svg" viewBox="0 0 1440 320"><path fill="#ffffff" fill-opacity="1" d="M0,320L26.7,309.3C53.3,299,107,277,160,245.3C213.3,213,267,171,320,181.3C373.3,192,427,256,480,272C533.3,288,587,256,640,234.7C693.3,213,747,203,800,213.3C853.3,224,907,256,960,234.7C1013.3,213,1067,139,1120,138.7C1173.3,139,1227,213,1280,218.7C1333.3,224,1387,160,1413,128L1440,96L1440,320L1413.3,320C1386.7,320,1333,320,1280,320C1226.7,320,1173,320,1120,320C1066.7,320,1013,320,960,320C906.7,320,853,320,800,320C746.7,320,693,320,640,320C586.7,320,533,320,480,320C426.7,320,373,320,320,320C266.7,320,213,320,160,320C106.7,320,53,320,27,320L0,320Z"></path></svg>